# Exported from Wings 3D v2.0.0.2017-03-29---13-58.mlab
mtllib Book.mtl
o Cube25
#32 vertices, 28 faces
v -0.32616667 2.1232041e-3 -0.38400000
v -0.32616667 2.1232041e-3 0.38400000
v -0.32616667 9.8123204e-2 -0.38400000
v -0.32616667 9.8123204e-2 0.38400000
v 0.15383333 2.1232041e-3 -0.38400000
v 0.15383333 2.1232041e-3 0.38400000
v 0.15383333 9.8123204e-2 -0.38400000
v 0.15383333 9.8123204e-2 0.38400000
v -0.32616667 2.4523204e-2 -0.38400000
v -0.32616667 7.5723204e-2 -0.38400000
v -0.32616667 2.4523204e-2 0.38400000
v -0.32616667 7.5723204e-2 0.38400000
v 0.15383333 2.4523204e-2 -0.38400000
v 0.15383333 7.5723204e-2 -0.38400000
v 0.15383333 2.4523204e-2 0.38400000
v 0.15383333 7.5723204e-2 0.38400000
v 0.12983333 2.4523204e-2 -0.36000000
v 0.12983333 7.5723204e-2 -0.36000000
v 0.12983333 2.4523204e-2 0.36000000
v 0.12983333 7.5723204e-2 0.36000000
v -0.32616667 7.5723204e-2 0.36000000
v -0.32616667 2.4523204e-2 0.36000000
v -0.32616667 2.4523204e-2 -0.36000000
v -0.32616667 7.5723204e-2 -0.36000000
v -0.28616667 2.4523204e-2 -0.38400000
v -0.28616667 7.5723204e-2 -0.38400000
v -0.28616667 7.5723204e-2 -0.36000000
v -0.28616667 2.4523204e-2 -0.36000000
v -0.28616667 7.5723204e-2 0.38400000
v -0.28616667 2.4523204e-2 0.38400000
v -0.28616667 2.4523204e-2 0.36000000
v -0.28616667 7.5723204e-2 0.36000000
vt 0.0000000e+0 1.00000000
vt 5.5511151e-17 0.53416224
vt 1.6760795e-2 0.40820523
vt 1.6760795e-2 0.45284802
vt 1.6760795e-2 0.42179217
vt 1.6760795e-2 0.46643495
vt 4.6651550e-2 6.0477389e-2
vt 5.1182941e-2 5.6012135e-2
vt 5.2646930e-2 0.34642589
vt 5.6883670e-2 0.34661631
vt 6.1501611e-2 7.4541609e-2
vt 6.5780266e-2 7.0499055e-2
vt 6.7140270e-2 0.34635531
vt 7.1375961e-2 0.34610732
vt 0.29114860 0.53416224
vt 0.29114860 1.00000000
vt 0.31134131 0.72428541
vt 0.31134131 0.79260829
vt 0.36523674 0.65238314
vt 0.36523674 0.66597007
vt 0.36523674 0.66597007
vt 0.36523674 0.67955701
vt 0.48259855 0.42179217
vt 0.48259855 0.40820523
vt 0.48259855 0.46643495
vt 0.48259855 0.45284802
vt 0.49820218 6.5274400e-2
vt 0.50192477 0.49029892
vt 0.50192477 0.52135477
vt 0.50192477 0.52135477
vt 0.50192477 0.53591220
vt 0.50247438 6.9194386e-2
vt 0.50388749 0.34650319
vt 0.50798688 0.34661631
vt 0.51246265 5.0233863e-2
vt 0.51698893 5.4567158e-2
vt 0.51851347 0.34642589
vt 0.52258407 0.34609973
vt 0.52618716 0.49029892
vt 0.52618716 0.49029892
vt 0.52618716 0.52135477
vt 0.52618716 0.52135477
vt 0.52618716 0.53591220
vt 0.55044954 0.49029892
vt 0.55044954 0.52135477
vt 0.55044954 0.52135477
vt 0.55044954 0.53591220
vt 0.55044954 0.52135477
vt 0.55044954 0.53591220
vt 0.57471192 0.49029892
vt 0.57471192 0.52135477
vt 0.57471192 0.49029892
vt 0.57471192 0.52135477
vt 0.57471192 0.52135477
vt 0.57471192 0.52135477
vt 0.57471192 0.53591220
vt 0.58831848 8.3266727e-17
vt 0.58831848 0.46583776
vt 0.59897431 0.49029892
vt 0.59897431 0.52135477
vt 0.59897431 0.52135477
vt 0.59897431 0.53591220
vt 0.61353174 0.49029892
vt 0.61353174 0.52135477
vt 0.61580943 0.49082631
vt 0.61580943 0.52188216
vt 0.63036686 0.49082631
vt 0.63036686 0.52188216
vt 0.66240662 0.59764558
vt 0.66240662 0.61123252
vt 0.66240662 0.62481945
vt 0.66240662 0.63840639
vt 0.66240662 0.58405865
vt 0.66240662 0.59764558
vt 0.66240662 0.61123252
vt 0.66240662 0.62481945
vt 0.83107449 0.65238314
vt 0.83107449 0.66597007
vt 0.83107449 0.67955701
vt 0.87946708 0.0000000e+0
vt 0.87946708 0.46583776
vt 0.92037362 0.72428541
vt 0.92037362 0.79260829
vt 0.95355522 0.61123252
vt 0.95355522 0.59764558
vt 0.95355522 0.61123252
vt 0.95355522 0.62481945
vt 0.95355522 0.63840639
vt 0.95355522 0.58405865
vt 0.95355522 0.59764558
vn 0.0000000e+0 -1.00000000 0.0000000e+0
vn 0.0000000e+0 0.0000000e+0 -1.00000000
vn -1.00000000 0.0000000e+0 0.0000000e+0
vn 0.0000000e+0 -1.00000000 0.0000000e+0
vn 0.0000000e+0 0.0000000e+0 1.00000000
vn -1.00000000 0.0000000e+0 0.0000000e+0
vn 0.0000000e+0 1.00000000 0.0000000e+0
vn 0.0000000e+0 0.0000000e+0 -1.00000000
vn -1.00000000 0.0000000e+0 0.0000000e+0
vn 0.0000000e+0 1.00000000 0.0000000e+0
vn 0.0000000e+0 0.0000000e+0 1.00000000
vn -1.00000000 0.0000000e+0 0.0000000e+0
vn 0.0000000e+0 -1.00000000 0.0000000e+0
vn 0.0000000e+0 0.0000000e+0 -1.00000000
vn 1.00000000 0.0000000e+0 0.0000000e+0
vn 0.0000000e+0 -1.00000000 0.0000000e+0
vn 0.0000000e+0 0.0000000e+0 1.00000000
vn 1.00000000 0.0000000e+0 0.0000000e+0
vn 0.0000000e+0 1.00000000 0.0000000e+0
vn 0.0000000e+0 0.0000000e+0 -1.00000000
vn 1.00000000 0.0000000e+0 0.0000000e+0
vn 0.0000000e+0 1.00000000 0.0000000e+0
vn 0.0000000e+0 0.0000000e+0 1.00000000
vn 1.00000000 0.0000000e+0 0.0000000e+0
vn 0.0000000e+0 0.0000000e+0 -1.00000000
vn -1.00000000 0.0000000e+0 0.0000000e+0
vn 0.0000000e+0 1.00000000 0.0000000e+0
vn 0.0000000e+0 0.0000000e+0 -1.00000000
vn 0.0000000e+0 -1.00000000 0.0000000e+0
vn 0.0000000e+0 0.0000000e+0 -1.00000000
vn -1.00000000 0.0000000e+0 0.0000000e+0
vn 0.0000000e+0 -1.00000000 0.0000000e+0
vn 0.0000000e+0 0.0000000e+0 -1.00000000
vn 0.0000000e+0 1.00000000 0.0000000e+0
vn 0.0000000e+0 0.0000000e+0 1.00000000
vn -1.00000000 0.0000000e+0 0.0000000e+0
vn 0.0000000e+0 1.00000000 0.0000000e+0
vn 0.0000000e+0 0.0000000e+0 1.00000000
vn 0.0000000e+0 -1.00000000 0.0000000e+0
vn 0.0000000e+0 0.0000000e+0 1.00000000
vn -1.00000000 0.0000000e+0 0.0000000e+0
vn 0.0000000e+0 -1.00000000 0.0000000e+0
vn 0.0000000e+0 0.0000000e+0 1.00000000
vn 0.0000000e+0 1.00000000 0.0000000e+0
vn 0.0000000e+0 0.0000000e+0 -1.00000000
vn 1.00000000 0.0000000e+0 0.0000000e+0
vn 0.0000000e+0 1.00000000 0.0000000e+0
vn 0.0000000e+0 1.00000000 0.0000000e+0
vn 0.0000000e+0 0.0000000e+0 -1.00000000
vn 1.00000000 0.0000000e+0 0.0000000e+0
vn 0.0000000e+0 -1.00000000 0.0000000e+0
vn 0.0000000e+0 -1.00000000 0.0000000e+0
vn 0.0000000e+0 0.0000000e+0 1.00000000
vn 1.00000000 0.0000000e+0 0.0000000e+0
vn 0.0000000e+0 1.00000000 0.0000000e+0
vn 0.0000000e+0 1.00000000 0.0000000e+0
vn 0.0000000e+0 0.0000000e+0 1.00000000
vn 1.00000000 0.0000000e+0 0.0000000e+0
vn 0.0000000e+0 -1.00000000 0.0000000e+0
vn 0.0000000e+0 -1.00000000 0.0000000e+0
vn 0.0000000e+0 0.0000000e+0 -1.00000000
vn 1.00000000 0.0000000e+0 0.0000000e+0
vn 0.0000000e+0 1.00000000 0.0000000e+0
vn 0.0000000e+0 1.00000000 0.0000000e+0
vn 0.0000000e+0 0.0000000e+0 -1.00000000
vn 1.00000000 0.0000000e+0 0.0000000e+0
vn 0.0000000e+0 -1.00000000 0.0000000e+0
vn 0.0000000e+0 -1.00000000 0.0000000e+0
vn 0.0000000e+0 0.0000000e+0 1.00000000
vn 1.00000000 0.0000000e+0 0.0000000e+0
vn 0.0000000e+0 1.00000000 0.0000000e+0
vn 0.0000000e+0 1.00000000 0.0000000e+0
vn 0.0000000e+0 0.0000000e+0 1.00000000
vn 1.00000000 0.0000000e+0 0.0000000e+0
vn 0.0000000e+0 -1.00000000 0.0000000e+0
vn 0.0000000e+0 -1.00000000 0.0000000e+0
vn 0.0000000e+0 0.0000000e+0 1.00000000
vn 0.0000000e+0 -1.00000000 0.0000000e+0
vn 0.0000000e+0 0.0000000e+0 -1.00000000
vn 0.0000000e+0 1.00000000 0.0000000e+0
vn 0.0000000e+0 0.0000000e+0 1.00000000
vn 0.0000000e+0 1.00000000 0.0000000e+0
vn 0.0000000e+0 -1.00000000 0.0000000e+0
vn 0.0000000e+0 0.0000000e+0 -1.00000000
vn 0.0000000e+0 0.0000000e+0 -1.00000000
vn 0.0000000e+0 1.00000000 0.0000000e+0
vn 0.0000000e+0 0.0000000e+0 1.00000000
vn 0.0000000e+0 -1.00000000 0.0000000e+0
vn 0.0000000e+0 0.0000000e+0 -1.00000000
vn 0.0000000e+0 -1.00000000 0.0000000e+0
vn 0.0000000e+0 1.00000000 0.0000000e+0
vn 0.0000000e+0 0.0000000e+0 1.00000000
vn 1.00000000 0.0000000e+0 0.0000000e+0
vn 0.0000000e+0 0.0000000e+0 -1.00000000
vn 0.0000000e+0 -1.00000000 0.0000000e+0
vn 1.00000000 0.0000000e+0 0.0000000e+0
vn 0.0000000e+0 0.0000000e+0 -1.00000000
vn 0.0000000e+0 1.00000000 0.0000000e+0
vn 1.00000000 0.0000000e+0 0.0000000e+0
vn 0.0000000e+0 1.00000000 0.0000000e+0
vn 0.0000000e+0 0.0000000e+0 1.00000000
vn 1.00000000 0.0000000e+0 0.0000000e+0
vn 0.0000000e+0 0.0000000e+0 1.00000000
vn 0.0000000e+0 -1.00000000 0.0000000e+0
vn 1.00000000 0.0000000e+0 0.0000000e+0
vn 0.0000000e+0 0.0000000e+0 1.00000000
vn 0.0000000e+0 1.00000000 0.0000000e+0
vn 1.00000000 0.0000000e+0 0.0000000e+0
vn 0.0000000e+0 0.0000000e+0 1.00000000
vn 0.0000000e+0 -1.00000000 0.0000000e+0
vn 1.00000000 0.0000000e+0 0.0000000e+0
vn 0.0000000e+0 -1.00000000 0.0000000e+0
vn 0.0000000e+0 0.0000000e+0 -1.00000000
vn 1.00000000 0.0000000e+0 0.0000000e+0
vn 0.0000000e+0 0.0000000e+0 -1.00000000
vn 0.0000000e+0 1.00000000 0.0000000e+0
g Cube25_Cube25_auv
usemtl Cube25_auv
s 1
f 2/73/5 6/89/17 15/90/53 11/74/35
f 4/70/11 12/69/40 16/85/57 8/84/23
f 10/41/33 26/29/97 25/28/94 9/39/28
f 12/46/44 29/54/107 32/56/116 21/47/80
f 13/35/48 9/38/27 23/34/86 17/27/64
f 14/8/52 18/12/68 24/13/90 10/9/32
f 20/83/73 21/18/77 22/17/81 19/82/69
f 22/62/83 31/56/112 30/55/110 11/61/39
f 23/44/87 28/50/103 27/51/101 24/45/92
s 2
f 4/57/10 8/80/22 7/81/19 3/58/7
f 5/77/15 13/78/46 15/20/54 6/19/18
f 12/37/42 21/33/78 20/32/76 16/36/60
f 18/83/66 20/18/74 19/17/70 17/82/62
f 19/11/71 22/14/82 11/10/37 15/7/55
f 26/68/96 27/66/99 28/65/102 25/67/93
f 30/59/108 31/63/111 32/64/114 29/60/105
s 3
f 8/22/24 16/21/58 14/78/50 7/79/21
f 9/87/25 13/71/45 5/75/14 1/86/2
f 9/43/29 25/31/95 28/30/104 23/42/88
f 11/40/38 30/44/109 29/45/106 12/41/43
f 17/27/63 19/11/72 15/7/56 13/35/47
f 17/17/61 23/82/85 24/83/89 18/18/65
f 21/60/79 32/53/115 31/52/113 22/59/84
f 24/42/91 27/48/100 26/49/98 10/43/34
s 4
f 1/16/1 5/1/13 6/2/16 2/15/4
f 7/72/20 14/76/49 10/87/30 3/88/8
f 16/36/59 20/32/75 18/12/67 14/8/51
s 5
f 2/24/6 11/23/36 12/26/41 4/25/12 3/6/9 10/4/31 9/5/26 1/3/3
