# Exported from Wings 3D v2.0.0.2017-03-29---13-58.mlab
mtllib ChessBoard.mtl
o Cube46
#24 vertices, 18 faces
v -0.39600000 3.7226667e-3 -0.35640000
v -0.35640000 3.7226667e-3 -0.39600000
v -0.39600000 3.7226667e-3 0.35640000
v -0.35640000 3.7226667e-3 0.39600000
v -0.39600000 0.16212267 -0.35640000
v -0.35640000 0.16212267 -0.39600000
v -0.39600000 0.16212267 0.35640000
v -0.35640000 0.16212267 0.39600000
v 0.35640000 3.7226667e-3 -0.39600000
v 0.39600000 3.7226667e-3 -0.35640000
v 0.39600000 3.7226667e-3 0.35640000
v 0.35640000 3.7226667e-3 0.39600000
v 0.35640000 0.16212267 -0.39600000
v 0.39600000 0.16212267 -0.35640000
v 0.39600000 0.16212267 0.35640000
v 0.35640000 0.16212267 0.39600000
v 0.33999714 0.16212267 0.35640000
v 0.35640000 0.16212267 0.33999714
v 0.35640000 0.16212267 -0.33999714
v 0.33999714 0.16212267 -0.35640000
v -0.33999714 0.16212267 -0.35640000
v -0.35640000 0.16212267 -0.33999714
v -0.35640000 0.16212267 0.33999714
v -0.33999714 0.16212267 0.35640000
vt 0.0000000e+0 1.1102230e-16
vt 0.0000000e+0 9.7970955e-2
vt 0.0000000e+0 0.12246369
vt 0.0000000e+0 0.58782573
vt 0.0000000e+0 0.68579669
vt 0.0000000e+0 0.78376764
vt 1.1934898e-15 0.56333299
vt 2.4492739e-2 9.7970955e-2
vt 2.4492739e-2 0.58782573
vt 2.4492739e-2 0.13260892
vt 2.4492739e-2 0.55318777
vt 3.4637963e-2 2.0122792e-16
vt 3.4637963e-2 9.7970955e-2
vt 3.4637963e-2 0.58782573
vt 3.4637963e-2 0.68579669
vt 3.4637963e-2 0.12246369
vt 3.4637963e-2 0.56333299
vt 0.44086930 0.68579669
vt 0.44086930 0.78376764
vt 0.45521681 0.12246369
vt 0.45521681 0.56333299
vt 0.46536204 0.13260892
vt 0.46536204 0.55318777
vt 0.46536204 9.7970955e-2
vt 0.46536204 0.58782573
vt 0.47550726 0.58782573
vt 0.47550726 0.68579669
vt 0.47550726 0.0000000e+0
vt 0.47550726 9.7970955e-2
vt 0.48985478 0.12246369
vt 0.48985478 0.56333299
vt 0.51014522 2.7755576e-17
vt 0.51014522 2.4492739e-2
vt 0.51014522 9.7970955e-2
vt 0.51014522 0.48985478
vt 0.51014522 0.58782573
vt 0.51014522 0.46536204
vt 0.53463796 8.3266727e-17
vt 0.53463796 0.48985478
vt 0.54478319 0.48985478
vt 0.54478319 0.58782573
vt 0.97550726 0.0000000e+0
vt 0.97550726 0.48985478
vt 0.98565249 0.48985478
vt 0.98565249 0.58782573
vt 1.00000000 2.4492739e-2
vt 1.00000000 0.46536204
vn -0.81251992 -0.47596315 -0.33655677
vn -0.33655677 -0.47596315 -0.81251992
vn -0.81251992 -0.47596315 0.33655677
vn -0.33655677 -0.47596315 0.81251992
vn -0.62694312 0.73450956 -0.25968834
vn -0.25968834 0.73450956 -0.62694312
vn -0.62694312 0.73450956 0.25968834
vn -0.25968834 0.73450956 0.62694312
vn 0.33655677 -0.47596315 -0.81251992
vn 0.81251992 -0.47596315 -0.33655677
vn 0.81251992 -0.47596315 0.33655677
vn 0.33655677 -0.47596315 0.81251992
vn 0.25968834 0.73450956 -0.62694312
vn 0.62694312 0.73450956 -0.25968834
vn 0.62694312 0.73450956 0.25968834
vn 0.25968834 0.73450956 0.62694312
vn 0.0000000e+0 1.00000000 -3.1330441e-18
vn 0.0000000e+0 1.00000000 -3.1330441e-18
vn 0.0000000e+0 1.00000000 -3.1330441e-18
vn 0.0000000e+0 1.00000000 -3.1330441e-18
vn 0.0000000e+0 1.00000000 -3.1330441e-18
vn 0.0000000e+0 1.00000000 -3.1330441e-18
vn 0.0000000e+0 1.00000000 -3.1330441e-18
vn 0.0000000e+0 1.00000000 -3.1330441e-18
g Cube46_Cube46_auv
usemtl Cube46_auv
s 1
f 1/47/1 2/43/2 9/39/9 10/37/10 11/33/11 12/38/12 4/42/4 3/46/3
f 1/14/1 5/15/5 6/5/6 2/4/2
f 2/18/2 6/19/6 13/6/13 9/5/9
f 3/35/3 4/40/4 8/41/8 7/36/7
f 3/26/3 7/27/7 5/15/5 1/14/1
f 5/7/5 22/11/22 21/17/21 6/9/6
f 6/9/6 21/17/21 20/21/20 13/25/13
f 7/3/7 23/10/23 22/11/22 5/7/5
f 8/8/8 24/16/24 23/10/23 7/3/7
f 10/28/10 14/29/14 15/13/15 11/12/11
f 12/1/12 11/12/11 15/13/15 16/2/16
f 12/44/12 16/45/16 8/41/8 4/40/4
f 13/25/13 20/21/20 19/23/19 14/31/14
f 14/29/14 10/28/10 9/32/9 13/34/13
f 14/31/14 19/23/19 18/22/18 15/30/15
f 15/30/15 18/22/18 17/20/17 16/24/16
f 16/24/16 17/20/17 24/16/24 8/8/8
f 18/22/18 19/23/19 20/21/20 21/17/21 22/11/22 23/10/23 24/16/24 17/20/17
