# Exported from Wings 3D v2.0.0.2017-03-29---13-58.mlab
mtllib MotherBoard.mtl
o Cube30
#8 vertices, 6 faces
v -8.00000000 0.0000000e+0 -1.60000000
v -8.00000000 0.0000000e+0 1.60000000
v -8.00000000 8.00000000 -1.60000000
v -8.00000000 8.00000000 1.60000000
v 8.00000000 0.0000000e+0 -1.60000000
v 8.00000000 0.0000000e+0 1.60000000
v 8.00000000 8.00000000 -1.60000000
v 8.00000000 8.00000000 1.60000000
vt 0.0000000e+0 2.7755576e-16
vt 0.0000000e+0 0.50000000
vt 0.0000000e+0 0.50000000
vt 0.0000000e+0 0.85714286
vt 0.0000000e+0 1.00000000
vt 1.6653345e-16 0.85714286
vt 3.3306691e-16 0.35714286
vt 0.71428571 0.0000000e+0
vt 0.71428571 0.50000000
vt 0.71428571 0.85714286
vt 0.71428571 1.00000000
vt 0.71428571 0.0000000e+0
vt 0.71428571 0.85714286
vt 0.71428571 0.35714286
vt 0.71428571 0.35714286
vt 0.71428571 0.35714286
vt 0.71428571 0.71428571
vt 0.85714286 0.0000000e+0
vt 0.85714286 0.35714286
vt 0.85714286 0.71428571
vt 0.85714286 0.35714286
vn 0.0000000e+0 -1.00000000 0.0000000e+0
vn 0.0000000e+0 0.0000000e+0 -1.00000000
vn -1.00000000 0.0000000e+0 0.0000000e+0
vn 0.0000000e+0 -1.00000000 0.0000000e+0
vn 0.0000000e+0 0.0000000e+0 1.00000000
vn -1.00000000 0.0000000e+0 0.0000000e+0
vn 0.0000000e+0 1.00000000 0.0000000e+0
vn 0.0000000e+0 0.0000000e+0 -1.00000000
vn -1.00000000 0.0000000e+0 0.0000000e+0
vn 0.0000000e+0 1.00000000 0.0000000e+0
vn 0.0000000e+0 0.0000000e+0 1.00000000
vn -1.00000000 0.0000000e+0 0.0000000e+0
vn 0.0000000e+0 -1.00000000 0.0000000e+0
vn 0.0000000e+0 0.0000000e+0 -1.00000000
vn 1.00000000 0.0000000e+0 0.0000000e+0
vn 0.0000000e+0 -1.00000000 0.0000000e+0
vn 0.0000000e+0 0.0000000e+0 1.00000000
vn 1.00000000 0.0000000e+0 0.0000000e+0
vn 0.0000000e+0 1.00000000 0.0000000e+0
vn 0.0000000e+0 0.0000000e+0 -1.00000000
vn 1.00000000 0.0000000e+0 0.0000000e+0
vn 0.0000000e+0 1.00000000 0.0000000e+0
vn 0.0000000e+0 0.0000000e+0 1.00000000
vn 1.00000000 0.0000000e+0 0.0000000e+0
g Cube30_Cube30_auv
usemtl Cube30_auv
s 1
f 2/19/6 4/20/12 3/17/9 1/15/3
f 5/18/15 7/21/21 8/14/24 6/12/18
s 2
f 2/1/5 6/8/17 8/14/23 4/7/11
f 3/13/8 7/6/20 5/3/14 1/9/2
s 3
f 1/9/1 5/2/13 6/7/16 2/16/4
f 4/4/10 8/10/22 7/11/19 3/5/7
