# Exported from Wings 3D v2.0.0.2017-03-29---13-58.mlab
mtllib Room.mtl
o Room
#24 vertices, 17 faces
v 6.00000000 7.00000000 6.00000000
v 6.00000000 7.00000000 -5.00000000
v 6.00000000 0.0000000e+0 6.00000000
v 6.00000000 0.0000000e+0 -5.00000000
v -6.00000000 7.00000000 6.00000000
v -6.00000000 7.00000000 -5.00000000
v -6.00000000 0.0000000e+0 6.00000000
v -6.00000000 0.0000000e+0 -5.00000000
v 4.71360000 0.0000000e+0 6.00000000
v 2.61984000 0.0000000e+0 6.00000000
v 2.61984000 4.60000000 6.00000000
v 4.71360000 4.60000000 6.00000000
v -5.90000000 4.36666667 -1.13333333
v -5.90000000 1.43333333 -1.13333333
v -5.90000000 1.43333333 3.83333333
v -5.90000000 4.36666667 3.83333333
v -6.00000000 4.58436594 -1.45299302
v -6.00000000 1.29890782 -1.49596961
v -6.00000000 1.21994976 4.15588990
v -6.00000000 4.66531951 4.07906035
v -6.00000000 1.82008298 -0.74658369
v -6.00000000 3.97991702 -0.74658369
v -6.00000000 3.97991702 3.44658369
v -6.00000000 1.82008298 3.44658369
vt 0.0000000e+0 2.4980018e-16
vt 0.0000000e+0 0.21875000
vt 0.0000000e+0 0.43750000
vt 0.0000000e+0 0.78125000
vt 0.0000000e+0 1.00000000
vt 5.5511151e-17 0.43750000
vt 1.1102230e-16 0.78125000
vt 2.4980018e-16 0.21875000
vt 4.0200000e-2 2.7755576e-16
vt 4.0200000e-2 0.14375000
vt 0.10563000 0.14375000
vt 0.10563000 0.0000000e+0
vt 0.34375000 1.00000000
vt 0.34375000 0.78125000
vt 0.37500000 0.21875000
vt 0.37500000 0.43750000
vt 0.37500000 0.65802708
vt 0.37500000 0.78125000
vt 0.37500000 0.43750000
vt 0.37500000 2.4980018e-16
vt 0.37500000 0.21875000
vt 0.37500000 5.5511151e-17
vt 0.37500000 0.34375000
vt 0.37507559 0.43860933
vt 0.46514256 0.49411481
vt 0.46752136 0.60218919
vt 0.47536913 0.50128407
vt 0.47544801 0.59254945
vt 0.48755078 0.51358426
vt 0.48762286 0.58025165
vt 0.61835986 0.51381404
vt 0.61838642 0.58014439
vt 0.63054103 0.50156308
vt 0.63056174 0.59239773
vt 0.64069641 0.59965185
vt 0.64198146 0.49658261
vt 0.64437000 5.5511151e-17
vt 0.70980000 0.0000000e+0
vt 0.71937452 0.43860933
vt 0.71950646 0.65795673
vt 0.75000000 5.5511151e-17
vt 0.75000000 0.34375000
vn 0.99953069 2.9356382e-2 -8.7517913e-3
vn 0.99783034 -6.5201082e-2 -9.1335610e-3
vn 0.99767711 -6.4927460e-2 2.0610690e-2
vn 0.99933862 3.0012873e-2 2.0531714e-2
vn 0.98369370 0.12717448 0.12717448
vn 0.98369370 -0.12717448 0.12717448
vn 0.98369370 -0.12717448 -0.12717448
vn 0.98369370 0.12717448 -0.12717448
vn 0.0000000e+0 -1.00000000 0.0000000e+0
vn -1.00000000 0.0000000e+0 0.0000000e+0
vn 0.0000000e+0 0.0000000e+0 -1.00000000
vn 0.0000000e+0 -1.00000000 0.0000000e+0
vn 0.0000000e+0 0.0000000e+0 1.00000000
vn -1.00000000 0.0000000e+0 0.0000000e+0
vn 0.0000000e+0 1.00000000 0.0000000e+0
vn -1.00000000 0.0000000e+0 0.0000000e+0
vn 0.0000000e+0 0.0000000e+0 -1.00000000
vn 0.0000000e+0 1.00000000 0.0000000e+0
vn 0.0000000e+0 0.0000000e+0 1.00000000
vn -1.00000000 0.0000000e+0 0.0000000e+0
vn 0.0000000e+0 -1.00000000 0.0000000e+0
vn 0.0000000e+0 0.0000000e+0 -1.00000000
vn 1.00000000 0.0000000e+0 0.0000000e+0
vn 1.00000000 0.0000000e+0 0.0000000e+0
vn 0.0000000e+0 -1.00000000 0.0000000e+0
vn 0.0000000e+0 0.0000000e+0 1.00000000
vn 1.00000000 0.0000000e+0 0.0000000e+0
vn 1.00000000 0.0000000e+0 0.0000000e+0
vn 0.0000000e+0 1.00000000 0.0000000e+0
vn 0.0000000e+0 0.0000000e+0 -1.00000000
vn 1.00000000 0.0000000e+0 0.0000000e+0
vn 1.00000000 0.0000000e+0 0.0000000e+0
vn 0.0000000e+0 1.00000000 0.0000000e+0
vn 0.0000000e+0 0.0000000e+0 1.00000000
vn 1.00000000 0.0000000e+0 0.0000000e+0
vn 1.00000000 0.0000000e+0 0.0000000e+0
vn 0.0000000e+0 1.00000000 0.0000000e+0
vn 0.0000000e+0 0.0000000e+0 -1.00000000
vn 0.0000000e+0 1.00000000 0.0000000e+0
vn 0.0000000e+0 0.0000000e+0 -1.00000000
vn 0.0000000e+0 0.0000000e+0 -1.00000000
vn 0.0000000e+0 0.0000000e+0 -1.00000000
vn 1.00000000 0.0000000e+0 0.0000000e+0
vn 1.00000000 0.0000000e+0 0.0000000e+0
vn 0.97162724 0.18627342 -0.14574882
vn 0.97162724 0.18627342 -0.14574882
vn 1.00000000 0.0000000e+0 0.0000000e+0
vn 1.00000000 0.0000000e+0 0.0000000e+0
vn 0.95429089 -0.25922465 -0.14876655
vn 0.95429089 -0.25922465 -0.14876655
vn 1.00000000 0.0000000e+0 0.0000000e+0
vn 1.00000000 0.0000000e+0 0.0000000e+0
vn 0.95032978 -0.25938506 0.17202527
vn 0.95032978 -0.25938506 0.17202527
vn 1.00000000 0.0000000e+0 0.0000000e+0
vn 1.00000000 0.0000000e+0 0.0000000e+0
vn 0.96741264 0.18812555 0.16947437
vn 0.96741264 0.18812555 0.16947437
g Room_Room_auv
usemtl Room_auv
s 1
f 2/5/14 4/7/20 3/14/16 1/13/10
f 18/36/48 19/25/52 7/24/32 8/39/36
f 20/26/56 17/35/44 6/40/28 5/17/24
s 2
f 2/19/13 6/6/26 8/2/34 4/15/19
f 3/1/17 9/9/38 12/10/42 11/11/41 10/12/40 7/20/30 5/21/22 1/8/11
f 13/34/1 17/35/45 20/26/57 16/28/4
f 13/34/1 22/32/6 21/31/5 14/33/2
f 14/33/2 18/36/50 17/35/46 13/34/1
f 14/33/2 21/31/5 24/29/8 15/27/3
f 15/27/3 19/25/53 18/36/49 14/33/2
f 15/27/3 24/29/8 23/30/7 16/28/4
f 16/28/4 20/26/58 19/25/54 15/27/3
f 16/28/4 23/30/7 22/32/6 13/34/1
s 3
f 1/3/9 5/16/21 6/18/25 2/4/12
f 4/42/18 8/23/33 7/22/29 10/37/39 9/38/37 3/41/15
f 6/40/27 17/35/43 18/36/47 8/39/35
f 7/24/31 19/25/51 20/26/55 5/17/23
